<?xml version='1.0' encoding='UTF-8'?><rect width="100%" height="100%" fill="#F8FAFC"/>
<svg width="82mm" height="82mm" version="1.1" viewBox="0 0 82 82" fill_color="#0F172A" back_color="#F8FAFC" xmlns="http://www.w3.org/2000/svg"><path d="M8,8H10V10H8zM10,8H12V10H10zM12,8H14V10H12zM14,8H16V10H14zM16,8H18V10H16zM18,8H20V10H18zM20,8H22V10H20zM24,8H26V10H24zM30,8H32V10H30zM36,8H38V10H36zM38,8H40V10H38zM46,8H48V10H46zM48,8H50V10H48zM50,8H52V10H50zM52,8H54V10H52zM56,8H58V10H56zM60,8H62V10H60zM62,8H64V10H62zM64,8H66V10H64zM66,8H68V10H66zM68,8H70V10H68zM70,8H72V10H70zM72,8H74V10H72zM8,10H10V12H8zM20,10H22V12H20zM26,10H28V12H26zM32,10H34V12H32zM38,10H40V12H38zM40,10H42V12H40zM52,10H54V12H52zM56,10H58V12H56zM60,10H62V12H60zM72,10H74V12H72zM8,12H10V14H8zM12,12H14V14H12zM14,12H16V14H14zM16,12H18V14H16zM20,12H22V14H20zM24,12H26V14H24zM26,12H28V14H26zM32,12H34V14H32zM34,12H36V14H34zM38,12H40V14H38zM40,12H42V14H40zM50,12H52V14H50zM52,12H54V14H52zM54,12H56V14H54zM56,12H58V14H56zM60,12H62V14H60zM64,12H66V14H64zM66,12H68V14H66zM68,12H70V14H68zM72,12H74V14H72zM8,14H10V16H8zM12,14H14V16H12zM14,14H16V16H14zM16,14H18V16H16zM20,14H22V16H20zM26,14H28V16H26zM32,14H34V16H32zM36,14H38V16H36zM40,14H42V16H40zM42,14H44V16H42zM44,14H46V16H44zM46,14H48V16H46zM48,14H50V16H48zM50,14H52V16H50zM54,14H56V16H54zM56,14H58V16H56zM60,14H62V16H60zM64,14H66V16H64zM66,14H68V16H66zM68,14H70V16H68zM72,14H74V16H72zM8,16H10V18H8zM12,16H14V18H12zM14,16H16V18H14zM16,16H18V18H16zM20,16H22V18H20zM24,16H26V18H24zM28,16H30V18H28zM34,16H36V18H34zM40,16H42V18H40zM52,16H54V18H52zM60,16H62V18H60zM64,16H66V18H64zM66,16H68V18H66zM68,16H70V18H68zM72,16H74V18H72zM8,18H10V20H8zM20,18H22V20H20zM26,18H28V20H26zM30,18H32V20H30zM42,18H44V20H42zM50,18H52V20H50zM52,18H54V20H52zM54,18H56V20H54zM56,18H58V20H56zM60,18H62V20H60zM72,18H74V20H72zM8,20H10V22H8zM10,20H12V22H10zM12,20H14V22H12zM14,20H16V22H14zM16,20H18V22H16zM18,20H20V22H18zM20,20H22V22H20zM24,20H26V22H24zM28,20H30V22H28zM32,20H34V22H32zM36,20H38V22H36zM40,20H42V22H40zM44,20H46V22H44zM48,20H50V22H48zM52,20H54V22H52zM56,20H58V22H56zM60,20H62V22H60zM62,20H64V22H62zM64,20H66V22H64zM66,20H68V22H66zM68,20H70V22H68zM70,20H72V22H70zM72,20H74V22H72zM24,22H26V24H24zM26,22H28V24H26zM28,22H30V24H28zM34,22H36V24H34zM36,22H38V24H36zM42,22H44V24H42zM46,22H48V24H46zM48,22H50V24H48zM52,22H54V24H52zM54,22H56V24H54zM18,24H20V26H18zM20,24H22V26H20zM28,24H30V26H28zM30,24H32V26H30zM40,24H42V26H40zM42,24H44V26H42zM48,24H50V26H48zM52,24H54V26H52zM54,24H56V26H54zM56,24H58V26H56zM60,24H62V26H60zM64,24H66V26H64zM68,24H70V26H68zM72,24H74V26H72zM8,26H10V28H8zM12,26H14V28H12zM18,26H20V28H18zM24,26H26V28H24zM26,26H28V28H26zM28,26H30V28H28zM32,26H34V28H32zM36,26H38V28H36zM38,26H40V28H38zM42,26H44V28H42zM44,26H46V28H44zM48,26H50V28H48zM52,26H54V28H52zM54,26H56V28H54zM58,26H60V28H58zM62,26H64V28H62zM64,26H66V28H64zM12,28H14V30H12zM14,28H16V30H14zM16,28H18V30H16zM20,28H22V30H20zM24,28H26V30H24zM28,28H30V30H28zM36,28H38V30H36zM44,28H46V30H44zM50,28H52V30H50zM58,28H60V30H58zM60,28H62V30H60zM62,28H64V30H62zM66,28H68V30H66zM68,28H70V30H68zM70,28H72V30H70zM12,30H14V32H12zM22,30H24V32H22zM24,30H26V32H24zM26,30H28V32H26zM30,30H32V32H30zM38,30H40V32H38zM40,30H42V32H40zM44,30H46V32H44zM46,30H48V32H46zM52,30H54V32H52zM54,30H56V32H54zM56,30H58V32H56zM58,30H60V32H58zM60,30H62V32H60zM62,30H64V32H62zM66,30H68V32H66zM68,30H70V32H68zM72,30H74V32H72zM8,32H10V34H8zM10,32H12V34H10zM12,32H14V34H12zM18,32H20V34H18zM20,32H22V34H20zM24,32H26V34H24zM26,32H28V34H26zM30,32H32V34H30zM32,32H34V34H32zM34,32H36V34H34zM36,32H38V34H36zM38,32H40V34H38zM40,32H42V34H40zM44,32H46V34H44zM48,32H50V34H48zM50,32H52V34H50zM52,32H54V34H52zM54,32H56V34H54zM56,32H58V34H56zM58,32H60V34H58zM60,32H62V34H60zM64,32H66V34H64zM66,32H68V34H66zM10,34H12V36H10zM12,34H14V36H12zM14,34H16V36H14zM16,34H18V36H16zM18,34H20V36H18zM22,34H24V36H22zM26,34H28V36H26zM28,34H30V36H28zM32,34H34V36H32zM42,34H44V36H42zM46,34H48V36H46zM48,34H50V36H48zM50,34H52V36H50zM52,34H54V36H52zM54,34H56V36H54zM60,34H62V36H60zM68,34H70V36H68zM72,34H74V36H72zM8,36H10V38H8zM12,36H14V38H12zM16,36H18V38H16zM20,36H22V38H20zM24,36H26V38H24zM28,36H30V38H28zM40,36H42V38H40zM44,36H46V38H44zM52,36H54V38H52zM66,36H68V38H66zM68,36H70V38H68zM70,36H72V38H70zM8,38H10V40H8zM10,38H12V40H10zM12,38H14V40H12zM14,38H16V40H14zM16,38H18V40H16zM18,38H20V40H18zM22,38H24V40H22zM24,38H26V40H24zM26,38H28V40H26zM30,38H32V40H30zM36,38H38V40H36zM38,38H40V40H38zM42,38H44V40H42zM44,38H46V40H44zM54,38H56V40H54zM56,38H58V40H56zM58,38H60V40H58zM64,38H66V40H64zM68,38H70V40H68zM70,38H72V40H70zM72,38H74V40H72zM8,40H10V42H8zM12,40H14V42H12zM18,40H20V42H18zM20,40H22V42H20zM22,40H24V42H22zM30,40H32V42H30zM34,40H36V42H34zM38,40H40V42H38zM40,40H42V42H40zM44,40H46V42H44zM46,40H48V42H46zM64,40H66V42H64zM66,40H68V42H66zM68,40H70V42H68zM72,40H74V42H72zM8,42H10V44H8zM10,42H12V44H10zM12,42H14V44H12zM16,42H18V44H16zM18,42H20V44H18zM22,42H24V44H22zM28,42H30V44H28zM30,42H32V44H30zM32,42H34V44H32zM34,42H36V44H34zM36,42H38V44H36zM38,42H40V44H38zM42,42H44V44H42zM46,42H48V44H46zM48,42H50V44H48zM54,42H56V44H54zM56,42H58V44H56zM60,42H62V44H60zM62,42H64V44H62zM18,44H20V46H18zM20,44H22V46H20zM22,44H24V46H22zM26,44H28V46H26zM30,44H32V46H30zM32,44H34V46H32zM34,44H36V46H34zM36,44H38V46H36zM38,44H40V46H38zM42,44H44V46H42zM44,44H46V46H44zM46,44H48V46H46zM48,44H50V46H48zM52,44H54V46H52zM54,44H56V46H54zM64,44H66V46H64zM66,44H68V46H66zM68,44H70V46H68zM10,46H12V48H10zM12,46H14V48H12zM16,46H18V48H16zM22,46H24V48H22zM26,46H28V48H26zM32,46H34V48H32zM38,46H40V48H38zM40,46H42V48H40zM42,46H44V48H42zM44,46H46V48H44zM46,46H48V48H46zM54,46H56V48H54zM56,46H58V48H56zM60,46H62V48H60zM62,46H64V48H62zM66,46H68V48H66zM68,46H70V48H68zM72,46H74V48H72zM10,48H12V50H10zM12,48H14V50H12zM14,48H16V50H14zM20,48H22V50H20zM24,48H26V50H24zM34,48H36V50H34zM38,48H40V50H38zM42,48H44V50H42zM52,48H54V50H52zM58,48H60V50H58zM60,48H62V50H60zM62,48H64V50H62zM64,48H66V50H64zM66,48H68V50H66zM70,48H72V50H70zM72,48H74V50H72zM8,50H10V52H8zM12,50H14V52H12zM14,50H16V52H14zM18,50H20V52H18zM26,50H28V52H26zM30,50H32V52H30zM32,50H34V52H32zM36,50H38V52H36zM38,50H40V52H38zM40,50H42V52H40zM42,50H44V52H42zM44,50H46V52H44zM50,50H52V52H50zM56,50H58V52H56zM60,50H62V52H60zM62,50H64V52H62zM64,50H66V52H64zM8,52H10V54H8zM14,52H16V54H14zM16,52H18V54H16zM18,52H20V54H18zM20,52H22V54H20zM22,52H24V54H22zM32,52H34V54H32zM34,52H36V54H34zM40,52H42V54H40zM48,52H50V54H48zM50,52H52V54H50zM52,52H54V54H52zM66,52H68V54H66zM68,52H70V54H68zM70,52H72V54H70zM8,54H10V56H8zM12,54H14V56H12zM18,54H20V56H18zM22,54H24V56H22zM26,54H28V56H26zM28,54H30V56H28zM34,54H36V56H34zM38,54H40V56H38zM46,54H48V56H46zM48,54H50V56H48zM52,54H54V56H52zM56,54H58V56H56zM66,54H68V56H66zM68,54H70V56H68zM72,54H74V56H72zM8,56H10V58H8zM10,56H12V58H10zM12,56H14V58H12zM14,56H16V58H14zM20,56H22V58H20zM26,56H28V58H26zM30,56H32V58H30zM32,56H34V58H32zM38,56H40V58H38zM46,56H48V58H46zM48,56H50V58H48zM50,56H52V58H50zM52,56H54V58H52zM54,56H56V58H54zM56,56H58V58H56zM58,56H60V58H58zM60,56H62V58H60zM62,56H64V58H62zM64,56H66V58H64zM72,56H74V58H72zM24,58H26V60H24zM30,58H32V60H30zM32,58H34V60H32zM44,58H46V60H44zM50,58H52V60H50zM56,58H58V60H56zM64,58H66V60H64zM68,58H70V60H68zM72,58H74V60H72zM8,60H10V62H8zM10,60H12V62H10zM12,60H14V62H12zM14,60H16V62H14zM16,60H18V62H16zM18,60H20V62H18zM20,60H22V62H20zM32,60H34V62H32zM34,60H36V62H34zM36,60H38V62H36zM38,60H40V62H38zM40,60H42V62H40zM44,60H46V62H44zM46,60H48V62H46zM52,60H54V62H52zM54,60H56V62H54zM56,60H58V62H56zM60,60H62V62H60zM64,60H66V62H64zM66,60H68V62H66zM70,60H72V62H70zM8,62H10V64H8zM20,62H22V64H20zM24,62H26V64H24zM32,62H34V64H32zM34,62H36V64H34zM36,62H38V64H36zM48,62H50V64H48zM50,62H52V64H50zM52,62H54V64H52zM54,62H56V64H54zM56,62H58V64H56zM64,62H66V64H64zM66,62H68V64H66zM68,62H70V64H68zM70,62H72V64H70zM8,64H10V66H8zM12,64H14V66H12zM14,64H16V66H14zM16,64H18V66H16zM20,64H22V66H20zM26,64H28V66H26zM28,64H30V66H28zM34,64H36V66H34zM36,64H38V66H36zM46,64H48V66H46zM48,64H50V66H48zM50,64H52V66H50zM52,64H54V66H52zM56,64H58V66H56zM58,64H60V66H58zM60,64H62V66H60zM62,64H64V66H62zM64,64H66V66H64zM70,64H72V66H70zM72,64H74V66H72zM8,66H10V68H8zM12,66H14V68H12zM14,66H16V68H14zM16,66H18V68H16zM20,66H22V68H20zM26,66H28V68H26zM30,66H32V68H30zM32,66H34V68H32zM42,66H44V68H42zM46,66H48V68H46zM48,66H50V68H48zM50,66H52V68H50zM58,66H60V68H58zM62,66H64V68H62zM64,66H66V68H64zM66,66H68V68H66zM70,66H72V68H70zM8,68H10V70H8zM12,68H14V70H12zM14,68H16V70H14zM16,68H18V70H16zM20,68H22V70H20zM26,68H28V70H26zM28,68H30V70H28zM30,68H32V70H30zM34,68H36V70H34zM38,68H40V70H38zM40,68H42V70H40zM46,68H48V70H46zM50,68H52V70H50zM64,68H66V70H64zM66,68H68V70H66zM70,68H72V70H70zM72,68H74V70H72zM8,70H10V72H8zM20,70H22V72H20zM26,70H28V72H26zM32,70H34V72H32zM34,70H36V72H34zM36,70H38V72H36zM54,70H56V72H54zM58,70H60V72H58zM60,70H62V72H60zM66,70H68V72H66zM8,72H10V74H8zM10,72H12V74H10zM12,72H14V74H12zM14,72H16V74H14zM16,72H18V74H16zM18,72H20V74H18zM20,72H22V74H20zM28,72H30V74H28zM32,72H34V74H32zM42,72H44V74H42zM44,72H46V74H44zM46,72H48V74H46zM48,72H50V74H48zM50,72H52V74H50zM54,72H56V74H54zM56,72H58V74H56zM58,72H60V74H58zM68,72H70V74H68zM70,72H72V74H70z" id="qr-path" fill="#0F172A" fill-opacity="1" fill-rule="nonzero" stroke="none" /></svg>